<svg width="350" height="350" viewBox="0 0 350 350" fill="none" xmlns="http://www.w3.org/2000/svg">
<rect width="350" height="350" rx="175" fill="white"/>
<path fill-rule="evenodd" clip-rule="evenodd" d="M213.799 65.4903C208.794 68.3281 204.474 72.6256 200.799 78.4261C189.798 95.781 188.846 108.789 197.428 124.449C199.994 129.127 201.884 134.26 201.629 135.849C201.162 138.759 192.87 154.2 185.914 165.106L182.175 170.971L183.977 161.646C187.78 141.968 178.693 122.773 161.339 113.818C152.867 109.447 151.962 109.515 147.396 114.873C140.975 122.408 138.002 132.234 138.398 144.63C138.833 158.273 143.833 167.461 156.332 177.594L166.675 185.981L158.63 194.025C147.891 204.765 125.502 219.292 103.403 229.86C82.1538 240.024 80.9486 241.005 84.902 244.958C87.3044 247.361 92.5719 245.627 111.154 236.312C123.938 229.902 135.992 223.066 137.938 221.12C141.231 217.827 141.911 218.162 147.647 225.924C159.951 242.569 181.533 247.486 198.299 237.464C208.518 231.358 208.867 229.591 201.898 219.29C196.14 210.781 181.8 203.292 171.267 203.291L162.169 203.291L175.271 190.189L188.375 177.085L198.542 183.349C218.74 195.794 242.196 192.7 256.174 175.748C265.532 164.402 265.378 161.627 254.971 153.934C245.027 146.583 226.842 143.487 214.964 147.125C203.723 150.565 205.448 145.779 221.158 129.926C231.726 119.261 234.417 115.197 236.901 106.141C240.627 92.5591 236.936 76.8799 227.88 67.8239C221.657 61.601 220.881 61.4713 213.799 65.4903Z" fill="#00FFFF"/>
<path fill-rule="evenodd" clip-rule="evenodd" d="M216.609 63.7552C208.769 67.7982 199.492 78.5988 195.155 88.7304C190.2 100.302 190.955 112.63 197.327 124.261C199.949 129.044 201.884 134.26 201.629 135.849C201.163 138.754 192.892 154.158 185.916 165.109C182.344 170.718 182.261 170.462 184.029 159.336C187.093 140.062 177.867 121.828 160.8 113.427C152.846 109.512 151.856 109.631 147.253 115.05C140.118 123.453 137.002 137.139 139.204 150.408C140.939 160.86 142.264 163.062 153.563 174.284L166.012 186.643L158.297 194.358C147.866 204.789 125.269 219.402 103.403 229.86C82.1343 240.033 80.9467 241.003 84.9257 244.982C87.3697 247.426 92.5043 245.698 111.465 236.049C124.392 229.47 136.435 222.622 138.224 220.833C141.169 217.888 142.056 218.358 147.537 225.775C160.074 242.733 181.078 247.316 198.999 236.997C208.492 231.531 208.822 229.524 201.898 219.29C196.139 210.781 181.8 203.292 171.266 203.291L162.169 203.291L175.446 190.014L188.722 176.737L195.709 181.797C214.725 195.57 242.085 192.833 256.173 175.748C265.532 164.402 265.378 161.626 254.971 153.934C244.953 146.528 226.478 143.399 215.311 147.213C211.077 148.662 207.132 149.4 206.548 148.854C204.565 147.009 211.209 138.274 219.219 132.194C240.428 116.097 244.643 84.5865 227.835 67.779C222.526 62.4699 220.501 61.7449 216.609 63.7552Z" fill="#2CBFAE"/>
<path fill-rule="evenodd" clip-rule="evenodd" d="M212.435 98.6059C211.166 99.8752 210.415 102.124 210.766 103.608C213.128 113.618 197.447 150.157 182.86 168.627L175.033 178.541L172 165.908C168.157 149.891 163.245 141.394 159.813 144.825C158.41 146.229 159.293 152.551 161.873 159.571C169.583 180.54 169.193 184.865 158.743 194.339C145.824 206.047 124.287 219.873 103.403 229.86C82.1348 240.033 80.9472 241.003 84.9262 244.982C87.3702 247.426 92.5048 245.698 111.465 236.05C124.393 229.47 136.317 222.741 137.962 221.095C141.447 217.611 155.852 219.077 168.28 224.181C174.771 226.846 176.968 226.829 176.968 224.108C176.968 221.387 173.802 219.386 164.45 216.187L151.932 211.908L171.07 193.855C184.329 181.352 191.9 175.526 195.711 174.903C214.569 171.817 229.329 168.142 231.471 166.001C234.955 162.516 230.176 158.515 225.456 160.962C218.075 164.786 194.984 167.605 196.681 164.474C197.572 162.833 200.658 157.363 203.541 152.322C209.844 141.291 216.305 122.506 218.082 110.044C219.428 100.605 216.456 94.5853 212.435 98.6059Z" fill="#49B6B6"/>
<path fill-rule="evenodd" clip-rule="evenodd" d="M212.435 98.6059C211.166 99.8752 210.415 102.124 210.766 103.608C213.128 113.618 197.447 150.157 182.86 168.627L175.033 178.541L172 165.908C168.157 149.891 163.245 141.394 159.813 144.825C158.41 146.229 159.293 152.551 161.873 159.571C169.583 180.54 169.193 184.865 158.743 194.339C145.824 206.047 124.287 219.873 103.403 229.86C82.1348 240.033 80.9472 241.003 84.9262 244.982C87.3702 247.426 92.5048 245.698 111.465 236.05C124.393 229.47 136.317 222.741 137.962 221.095C141.447 217.611 155.852 219.077 168.28 224.181C174.771 226.846 176.968 226.829 176.968 224.108C176.968 221.387 173.802 219.386 164.45 216.187L151.932 211.908L171.07 193.855C184.329 181.352 191.9 175.526 195.711 174.903C214.569 171.817 229.329 168.142 231.471 166.001C234.955 162.516 230.176 158.515 225.456 160.962C218.075 164.786 194.984 167.605 196.681 164.474C197.572 162.833 200.658 157.363 203.541 152.322C209.844 141.291 216.305 122.506 218.082 110.044C219.428 100.605 216.456 94.5853 212.435 98.6059Z" fill="#22B4A3"/>
<path fill-rule="evenodd" clip-rule="evenodd" d="M214.967 98.4333C213.919 98.4349 212.061 104.531 210.839 111.985C209.618 119.439 206.916 128.486 204.839 132.087C202.758 135.688 197.377 145.039 192.879 152.865C188.382 160.692 182.522 170.243 179.854 174.089L175.006 181.078L171.358 166.393C168.003 152.875 161.977 142.585 159.149 145.544C158.503 146.22 160.133 152.22 162.771 158.879C165.409 165.537 167.701 174.577 167.867 178.966C168.13 185.931 167.093 187.842 159.746 193.947C145.119 206.1 122.424 220.744 106.14 228.535C82.5046 239.846 80.9616 241.018 84.7437 244.8C87.4407 247.497 91.8438 246.026 111.742 235.786C124.817 229.055 137.087 221.974 139.008 220.054C142.833 216.225 153.422 217.221 167.365 222.719C173.636 225.193 175.486 225.19 173.913 222.708C172.706 220.803 166.929 217.891 161.076 216.235L150.434 213.224L170.752 193.806C190.19 175.228 191.514 174.33 201.406 173.06C211.396 171.776 230.189 167.283 231.639 165.833C232.029 165.443 231.434 164.239 230.315 163.155C229.198 162.073 222.485 162.662 215.399 164.469C208.312 166.275 200.271 167.642 197.529 167.506C192.988 167.277 193.254 166.24 200.501 155.894C205.583 148.641 210.041 138.278 212.829 127.243C219.119 102.348 219.41 98.4333 214.967 98.4333Z" fill="#16A897"/>
</svg>
