<svg width="14" height="17" viewBox="0 0 14 17" fill="none" xmlns="http://www.w3.org/2000/svg">
<path d="M1 6.93391C1 11.0926 4.63814 14.5317 6.24848 15.8503C6.47894 16.039 6.59556 16.1345 6.7675 16.1829C6.90138 16.2206 7.09843 16.2206 7.23232 16.1829C7.40458 16.1344 7.52038 16.0398 7.75171 15.8504C9.36205 14.5319 13 11.093 13 6.93429C13 5.36047 12.3679 3.85092 11.2427 2.73806C10.1174 1.6252 8.59141 1 7.0001 1C5.4088 1 3.88259 1.62529 2.75737 2.73815C1.63214 3.85101 1 5.36009 1 6.93391Z" stroke="#72837B" stroke-width="1.5" stroke-linecap="round" stroke-linejoin="round"/>
<path d="M5.28574 6.14289C5.28574 7.08967 6.05326 7.85718 7.00003 7.85718C7.94681 7.85718 8.71433 7.08967 8.71433 6.14289C8.71433 5.19611 7.94681 4.42859 7.00003 4.42859C6.05326 4.42859 5.28574 5.19611 5.28574 6.14289Z" stroke="#72837B" stroke-width="1.5" stroke-linecap="round" stroke-linejoin="round"/>
</svg>
